<svg xmlns="http://www.w3.org/2000/svg" width="43" height="41" viewBox="0 0 43 41">

<defs>
    <style>
      .cls-1 {
        fill: #8d81ac;
        fill-rule: evenodd;
      }
    </style>
  </defs>
  <path id="logo" class="cls-1" d="M68,52.98a1.359,1.359,0,0,0-.392-1.031L63.86,48.162,63.9,39.473a1.073,1.073,0,0,1-.051-0.243,0.815,0.815,0,0,0-.013-0.081,1.267,1.267,0,0,1-.048-0.138c-0.013-.051-0.027-0.1-0.044-0.149q-0.023-.042-0.042-0.086a1.643,1.643,0,0,0-.076-0.148l-0.041-.06a1.325,1.325,0,0,0-.118-0.145c-0.023-.019-0.045-0.038-0.066-0.057a1.185,1.185,0,0,0-.158-0.134,0.871,0.871,0,0,0-.1-0.051l-0.056-.028-0.1-.057A1.285,1.285,0,0,0,62.547,38H62.474l-3.127,0a1.326,1.326,0,0,0-.943.389,1.311,1.311,0,0,0-.389.937,1.333,1.333,0,0,0,1.336,1.327h1.808v7.981a1.338,1.338,0,0,0,.019.333,1.36,1.36,0,0,0,.6.951l0.157,0.125,2.9,2.9-3.223,3.228a1.324,1.324,0,0,0-.355.493,1.257,1.257,0,0,0-.064.212l-0.018.065a1.906,1.906,0,0,0-.019.361V65.4H59.349a1.291,1.291,0,0,0-.95,2.21,1.337,1.337,0,0,0,.945.383l3.145-.019a1.33,1.33,0,0,0,.491-0.1l0.182-.1c0.028-.014.058-0.028,0.085-0.044A1.742,1.742,0,0,0,63.4,67.6l0.062-.054a1.383,1.383,0,0,0,.125-0.157l0.034-.048c0.031-.054.058-0.109,0.084-0.166l0.027-.053a1.411,1.411,0,0,0,.038-0.14c0.01-.039.023-0.081,0.038-0.124s0.024-.092.038-0.14c0.006-.013,0,0.006,0,0.027A1.13,1.13,0,0,1,63.9,66.5L63.86,57.742l3.764-3.787A1.326,1.326,0,0,0,68,52.98ZM53.527,33.1a1.067,1.067,0,0,0-.612-0.279l-0.1,0L44.25,32l-0.068.011-0.063.01a1.233,1.233,0,0,1-.18.053,1.26,1.26,0,0,0-.148.037c-0.024.01-.05,0.024-0.076,0.038l-0.155.073a1.213,1.213,0,0,0-.162.117l-0.061.046a1.729,1.729,0,0,0-.13.141l-0.031.037c-0.036.051-.07,0.109-0.1,0.157l-0.031.054c-0.024.055-.038,0.1-0.054,0.147-0.009.026-.02,0.054-0.031,0.082,0,0.01,0,.026-0.006.042l-0.012.079c-0.006.037-.014,0.078-0.023,0.117l-2.933,33.52a1.294,1.294,0,0,0,.275,1.024l3.856,4.674c0.015,0.024.029,0.049,0.046,0.073a1.261,1.261,0,0,0,.976.466h0a1.234,1.234,0,0,0,.815-0.3l4.658-4a1.35,1.35,0,0,0,.159-0.17L50.8,68.5a1.316,1.316,0,0,0,.257-0.716L53.31,41.791l0.021-.076a1.268,1.268,0,0,0,.044-0.225,1.234,1.234,0,0,0,0-.212L53.364,41.2l0.63-6.981A1.306,1.306,0,0,0,53.527,33.1ZM48.641,66.309l-6.012-.531,2.052-23.764,6.011,0.532Zm2.282-26.342-6.011-.531,0.424-4.68,6.01,0.532ZM25,52.98a1.36,1.36,0,0,1,.392-1.031l3.751-3.787L29.1,39.473a1.072,1.072,0,0,0,.051-0.243,0.785,0.785,0,0,1,.013-0.081,1.246,1.246,0,0,0,.048-0.138c0.013-.051.027-0.1,0.044-0.149q0.023-.042.042-0.086c0.024-.052.05-0.1,0.076-0.148l0.041-.06a1.325,1.325,0,0,1,.118-0.145c0.023-.019.045-0.038,0.066-0.057a1.185,1.185,0,0,1,.158-0.134,0.864,0.864,0,0,1,.1-0.051l0.056-.028,0.1-.057A1.285,1.285,0,0,1,30.453,38h0.073l3.128,0a1.326,1.326,0,0,1,.943.389,1.311,1.311,0,0,1,.389.937,1.333,1.333,0,0,1-1.336,1.327H31.841v7.981a1.333,1.333,0,0,1-.019.333,1.36,1.36,0,0,1-.6.951l-0.157.125-2.9,2.9,3.223,3.228a1.325,1.325,0,0,1,.355.493,1.265,1.265,0,0,1,.064.212l0.018,0.065a1.905,1.905,0,0,1,.019.361V65.4h1.808a1.291,1.291,0,0,1,.95,2.21,1.336,1.336,0,0,1-.945.383l-3.145-.019a1.331,1.331,0,0,1-.491-0.1l-0.182-.1c-0.028-.014-0.058-0.028-0.085-0.044A1.742,1.742,0,0,1,29.6,67.6l-0.062-.054a1.372,1.372,0,0,1-.125-0.157l-0.034-.048c-0.031-.054-0.058-0.109-0.084-0.166l-0.027-.053c-0.016-.045-0.026-0.093-0.038-0.14s-0.023-.081-0.038-0.124-0.024-.092-0.038-0.14c-0.005-.013,0,0.006,0,0.027A1.13,1.13,0,0,0,29.1,66.5l0.039-8.759-3.763-3.787A1.326,1.326,0,0,1,25,52.98Z" transform="translate(-25 -32)"/>
</svg>
