<svg xmlns="http://www.w3.org/2000/svg" width="19" height="15" viewBox="0 0 19 15">

<defs>
    <style>
      .cls-1 {
        fill: #fff;
        fill-rule: evenodd;
      }
    </style>
  </defs>
  <path id="bird" class="cls-1" d="M613,2455.78a8.32,8.32,0,0,1-2.24.6,3.82,3.82,0,0,0,1.715-2.1,7.814,7.814,0,0,1-2.476.92,3.97,3.97,0,0,0-2.846-1.19,3.839,3.839,0,0,0-3.9,3.78,3.641,3.641,0,0,0,.1.86,11.186,11.186,0,0,1-8.037-3.95,3.682,3.682,0,0,0-.528,1.9,3.761,3.761,0,0,0,1.734,3.15,4.023,4.023,0,0,1-1.766-.47v0.04a3.824,3.824,0,0,0,3.128,3.72,4.325,4.325,0,0,1-1.027.13,4.411,4.411,0,0,1-.734-0.07,3.9,3.9,0,0,0,3.642,2.63,8,8,0,0,1-4.842,1.62c-0.315,0-.625-0.02-0.93-0.05a11.312,11.312,0,0,0,5.977,1.7,10.85,10.85,0,0,0,11.093-10.77c0-.17,0-0.33-0.011-0.49A7.729,7.729,0,0,0,613,2455.78Z" transform="translate(-594 -2454)"/>
</svg>
