<svg xmlns="http://www.w3.org/2000/svg" width="20" height="20" viewBox="0 0 20 20">
  <metadata><?xpacket begin="﻿" id="W5M0MpCehiHzreSzNTczkc9d"?>
<x:xmpmeta xmlns:x="adobe:ns:meta/" x:xmptk="Adobe XMP Core 5.6-c138 79.159824, 2016/09/14-01:09:01        ">
   <rdf:RDF xmlns:rdf="http://www.w3.org/1999/02/22-rdf-syntax-ns#">
      <rdf:Description rdf:about=""/>
   </rdf:RDF>
</x:xmpmeta>
                                                                                                    
                                                                                                    
                                                                                                    
                                                                                                    
                                                                                                    
                                                                                                    
                                                                                                    
                                                                                                    
                                                                                                    
                                                                                                    
                                                                                                    
                                                                                                    
                                                                                                    
                                                                                                    
                                                                                                    
                                                                                                    
                                                                                                    
                                                                                                    
                                                                                                    
                                                                                                    
                           
<?xpacket end="w"?></metadata>
<defs>
    <style>
      .cls-1 {
        fill: #2b414d;
        fill-rule: evenodd;
      }
    </style>
  </defs>
  <path id="icon" class="cls-1" d="M327.448,2470.73c-0.071-.98-0.15-2.19-0.155-2.68a2.412,2.412,0,0,0-.966-1.96c3.555-.3,5.247-2.3,5.368-4.94a5,5,0,0,0-1.531-3.9,21.654,21.654,0,0,0-.106-3.1c-0.8-.23-2.67.78-3.193,1.21a9.706,9.706,0,0,0-5.436,0,5.151,5.151,0,0,0-3.2-1.21,3.969,3.969,0,0,0-.107,3.09c-0.858.8-2.053,1.78-1.728,3.84,0.521,3.01,2.6,4.64,5.958,5.04a1.1,1.1,0,0,0-.9.93c-2.252.94-2.895-.59-3.181-0.99-0.945-1.19-1.793-.84-1.846-0.82a0.138,0.138,0,0,0-.084.13,1.339,1.339,0,0,0,.588.53,4.5,4.5,0,0,1,1.115,1.76c1,1.68,3.327.98,3.349,1,0,0.14-.016,1.38-0.03,2.34A10.02,10.02,0,1,1,327.448,2470.73Z" transform="translate(-314 -2451)"/>
</svg>
