<svg xmlns="http://www.w3.org/2000/svg" width="43" height="41"><path d="M43 20.98a1.359 1.359 0 0 0-.392-1.031l-3.748-3.787.04-8.689a1.073 1.073 0 0 1-.051-.243.815.815 0 0 0-.013-.081 1.267 1.267 0 0 1-.048-.138 1.828 1.828 0 0 0-.044-.149q-.023-.042-.042-.086a1.643 1.643 0 0 0-.076-.148l-.041-.06a1.325 1.325 0 0 0-.118-.145 1.94 1.94 0 0 1-.066-.057 1.185 1.185 0 0 0-.158-.134.871.871 0 0 0-.1-.051l-.056-.028-.1-.057a1.285 1.285 0 0 0-.44-.096H34.347a1.326 1.326 0 0 0-.943.389 1.311 1.311 0 0 0-.389.937 1.333 1.333 0 0 0 1.336 1.327h1.808v7.981a1.338 1.338 0 0 0 .019.333 1.36 1.36 0 0 0 .6.951l.157.125 2.9 2.9-3.223 3.228a1.324 1.324 0 0 0-.355.493 1.257 1.257 0 0 0-.064.212l-.018.065a1.906 1.906 0 0 0-.019.361V33.4h-1.807a1.291 1.291 0 0 0-.95 2.21 1.337 1.337 0 0 0 .945.383l3.145-.019a1.33 1.33 0 0 0 .491-.1l.182-.1c.028-.014.058-.028.085-.044a1.742 1.742 0 0 0 .153-.13l.062-.054a1.383 1.383 0 0 0 .125-.157l.034-.048c.031-.054.058-.109.084-.166l.027-.053a1.411 1.411 0 0 0 .038-.14c.01-.039.023-.081.038-.124s.024-.092.038-.14c.006-.013 0 .006 0 .027a1.13 1.13 0 0 1 .054-.245l-.04-8.758 3.764-3.787A1.326 1.326 0 0 0 43 20.98zM28.527 1.1a1.067 1.067 0 0 0-.612-.279h-.1L19.25 0l-.068.011-.063.01a1.233 1.233 0 0 1-.18.053 1.26 1.26 0 0 0-.148.037c-.024.01-.05.024-.076.038l-.155.073a1.213 1.213 0 0 0-.162.117l-.061.046a1.729 1.729 0 0 0-.13.141l-.031.037c-.036.051-.07.109-.1.157l-.031.054c-.024.055-.038.1-.054.147l-.031.082c0 .01 0 .026-.006.042l-.012.079a1.853 1.853 0 0 1-.023.117l-2.933 33.52a1.294 1.294 0 0 0 .275 1.024l3.856 4.674c.015.024.029.049.046.073a1.261 1.261 0 0 0 .976.466 1.234 1.234 0 0 0 .815-.3l4.658-4a1.35 1.35 0 0 0 .159-.17l.029-.028a1.316 1.316 0 0 0 .257-.716L28.31 9.791l.021-.076a1.268 1.268 0 0 0 .044-.225 1.234 1.234 0 0 0 0-.212l-.011-.078.63-6.981a1.306 1.306 0 0 0-.467-1.119zm-4.886 33.209l-6.012-.531 2.052-23.764 6.011.532zm2.282-26.342l-6.011-.531.424-4.68 6.01.532zM0 20.98a1.36 1.36 0 0 1 .392-1.031l3.751-3.787L4.1 7.473a1.072 1.072 0 0 0 .051-.243.785.785 0 0 1 .013-.081 1.246 1.246 0 0 0 .048-.138c.013-.051.027-.1.044-.149q.023-.042.042-.086c.024-.052.05-.1.076-.148l.041-.06a1.325 1.325 0 0 1 .118-.145 1.94 1.94 0 0 0 .066-.057 1.185 1.185 0 0 1 .158-.134.864.864 0 0 1 .1-.051l.056-.028.1-.057A1.285 1.285 0 0 1 5.453 6h3.201a1.326 1.326 0 0 1 .943.389 1.311 1.311 0 0 1 .389.937A1.333 1.333 0 0 1 8.65 8.653H6.841v7.981a1.333 1.333 0 0 1-.019.333 1.36 1.36 0 0 1-.6.951l-.157.125-2.9 2.9 3.223 3.228a1.325 1.325 0 0 1 .355.493 1.265 1.265 0 0 1 .064.212l.018.065a1.905 1.905 0 0 1 .019.361V33.4h1.808a1.291 1.291 0 0 1 .95 2.21 1.336 1.336 0 0 1-.945.383l-3.145-.019a1.331 1.331 0 0 1-.491-.1l-.182-.1c-.028-.014-.058-.028-.085-.044a1.742 1.742 0 0 1-.154-.13l-.062-.054a1.372 1.372 0 0 1-.125-.157l-.034-.048a1.985 1.985 0 0 1-.084-.166l-.027-.053c-.016-.045-.026-.093-.038-.14s-.023-.081-.038-.124-.024-.092-.038-.14c-.005-.013 0 .006 0 .027A1.13 1.13 0 0 0 4.1 34.5l.039-8.759-3.763-3.787A1.326 1.326 0 0 1 0 20.98z" fill="#8d81ac" fill-rule="evenodd"/></svg>